<svg id="Capa_1" enable-background="new 0 0 512 512" height="512" viewBox="0 0 512 512" width="512" xmlns="http://www.w3.org/2000/svg"><g><path d="m512 134v244c0 24.81-20.19 45-45 45h-422c-24.81 0-45-20.19-45-45v-244c0-24.81 20.19-45 45-45h422c24.81 0 45 20.19 45 45z" fill="#6b66d0"/><path d="m512 134v244c0 24.81-20.19 45-45 45h-211v-334h211c24.81 0 45 20.19 45 45z" fill="#453d81"/><path d="m512 134v51h-512v-51c0-24.81 20.19-45 45-45h422c24.81 0 45 20.19 45 45z" fill="#453d81"/><path d="m512 134v51h-256v-96h211c24.81 0 45 20.19 45 45z" fill="#2e2654"/><path d="m447 264v64c0 8.28-6.72 15-15 15h-96c-8.28 0-15-6.72-15-15v-64c0-8.28 6.72-15 15-15h96c8.28 0 15 6.72 15 15z" fill="#ff8659"/><g fill="#ffb454"><path d="m239 264c0 8.28-6.72 15-15 15h-128c-8.28 0-15-6.72-15-15s6.72-15 15-15h128c8.28 0 15 6.72 15 15z"/><path d="m239 328c0 8.28-6.72 15-15 15h-128c-8.28 0-15-6.72-15-15s6.72-15 15-15h128c8.28 0 15 6.72 15 15z"/></g></g></svg>