<svg id="Capa_1" enable-background="new 0 0 512.001 512.001" height="512" viewBox="0 0 512.001 512.001" width="512" xmlns="http://www.w3.org/2000/svg"><g><path d="m350.55 273v239h-63.55c-8.28 0-15-6.72-15-15v-209c0-8.28 6.72-15 15-15z" fill="#ff6378"/><path d="m430.55 241v271h-80v-256c0-8.28 6.72-15 15-15z" fill="#ffe278"/><path d="m392 241h38.55v271h-38.55z" fill="#ffb454"/><path d="m510 224v273c0 8.28-6.72 15-15 15h-64.45v-288c0-8.28 6.72-15 15-15h49.45c8.28 0 15 6.72 15 15z" fill="#00cb75"/><path d="m511.994 14.877c-.063-8.333-6.887-14.877-14.994-14.877h-65c-8.284 0-15 6.716-15 15s6.716 15 15 15h28.787l-175.393 175.394c-5.858 5.857-5.858 15.355 0 21.213s15.355 5.858 21.213 0l175.393-175.394v28.787c0 8.284 6.716 15 15 15s15-6.716 15-15c0-73.497.003-64.287-.006-65.123z" fill="#e2dff4"/><path d="m143.68 226c-81.393 0-143.68 65.748-143.68 143 0 77.305 62.344 143 143.68 143 78.54-.37 142.32-64.38 142.32-143s-63.78-142.63-142.32-143z" fill="#ffb454"/><path d="m286 369c0 78.62-63.78 142.63-142.32 143v-286c78.54.37 142.32 64.38 142.32 143z" fill="#ff8659"/><circle cx="143" cy="369" fill="#ffe278" r="113"/><path d="m256 369c0 62.08-50.32 112.63-112.32 112.99v-225.98c62 .36 112.32 50.91 112.32 112.99z" fill="#ffb454"/><path d="m158.678 434.32v3.14c0 8.332-6.768 15-15 15-8.27 0-15-6.72-15-15v-1.44c-6.92-1.21-13.23-3.8-21.21-9.02-6.93-4.54-8.87-13.83-4.33-20.76 4.54-6.94 13.83-8.88 20.76-4.34 7.736 5.061 10.11 5.08 19.78 5.08 7.612 0 13.023-5.445 14.14-12.1.68-4.01-.08-9.34-7.51-11.97-10.872-3.831-24.654-8.999-34.28-16.55-20.65-16.19-14.31-53.07 12.65-62.88v-2.17c0-8.28 6.72-15 15-15 8.237 0 15 6.673 15 15v1.23c9.94 2.93 16.89 9.12 16.89 9.12 6.05 5.6 6.45 15.05.87 21.14-5.59 6.1-15.05 6.52-21.16.96-4.003-2.966-9.927-4.061-15.98-2.22-4.02 1.21-5.1 5.35-5.33 6.6-.49 2.58.2 4.32.57 4.62 6.082 4.783 18.515 9.296 25.77 11.87 39.531 13.98 34.71 66.56-1.63 79.69z" fill="#ffb454"/><g fill="#ff8659"><path d="m158.678 434.32v3.14c0 8.332-6.768 15-15 15v-45.48c7.612 0 13.023-5.445 14.14-12.1.68-4.01-.08-9.34-7.51-11.97-1.056-.372-5.937-2.116-6.63-2.4v-32.47c4.111 2.053 12.317 5.059 16.63 6.59 39.531 13.98 34.71 66.56-1.63 79.69z"/><path d="m143.678 330.701v-44.39c8.237 0 15 6.673 15 15v1.23c9.94 2.93 16.89 9.12 16.89 9.12 6.05 5.6 6.45 15.05.87 21.14-5.59 6.1-15.05 6.52-21.16.96-3.313-2.456-7.685-3.417-11.6-3.06z"/></g></g></svg>