<svg id="Capa_1" enable-background="new 0 0 512 512" height="512" viewBox="0 0 512 512" width="512" xmlns="http://www.w3.org/2000/svg"><g><path d="m434.57 368.22c-18.526 82.549-92.253 143.78-178.57 143.78-85.958 0-159.96-60.855-178.57-143.78-5.97-26.65 5.44-54.83 28.38-70.12 17.635-11.762 21.995-36.05 9.12-53.19-.174-.227.122.186-14.21-20.25-3.8-5.41-3.6-12.68.49-17.88 4.08-5.2 11.1-7.11 17.26-4.7l137.53 53.81c.101 0-1.916.754 137.98-53.99 6.19-2.42 13.23-.48 17.31 4.77 4.08 5.24 4.22 12.55.35 17.94-18.944 26.406-13.337 18.656-14.56 20.29-12.788 17.044-8.684 41.337 9.11 53.2 23.154 15.42 34.361 43.176 28.38 70.12z" fill="#985e33"/><path d="m434.57 368.22c-18.595 82.86-92.545 143.78-178.56 143.78v-256.11l137.97-53.99c6.19-2.42 13.23-.48 17.31 4.77 4.08 5.24 4.22 12.55.35 17.94-18.944 26.406-13.337 18.656-14.56 20.29-12.788 17.044-8.684 41.337 9.11 53.2 23.154 15.42 34.361 43.176 28.38 70.12z" fill="#7d4a3b"/><path d="m453.97 194.53c-3.02-7.71-11.72-11.52-19.44-8.5l-178.52 69.86c-.104 0-.275-.104-178.54-69.86-7.72-3.02-16.42.79-19.44 8.5-3.02 7.72.79 16.42 8.5 19.44l153.35 60c-6.79 8.15-10.88 18.62-10.88 30.03 0 25.903 21.059 47 47.01 47 25.92-.01 46.99-21.08 46.99-47 0-11.41-4.09-21.88-10.88-30.03l153.35-60c7.71-3.02 11.52-11.72 8.5-19.44zm-197.96 126.47c-9.454 0-17.01-7.7-17.01-17 0-9.306 7.563-17 17.01-17 9.37.01 16.99 7.63 16.99 17s-7.62 16.99-16.99 17z" fill="#ffb454"/><path d="m445.47 213.97-153.35 60c6.79 8.15 10.88 18.62 10.88 30.03 0 25.92-21.07 46.99-46.99 47v-30c9.37-.01 16.99-7.63 16.99-17s-7.62-16.99-16.99-17v-31.11l178.52-69.86c7.72-3.02 16.42.79 19.44 8.5 3.02 7.72-.79 16.42-8.5 19.44z" fill="#ff8659"/><path d="m335 120c0 43.426-35.302 79-79 79-43.56 0-79-35.44-79-79 0-43.171 34.874-80 79.01-80 43.653 0 78.99 36.328 78.99 80z" fill="#ffe278"/><path d="m256.01 199v-159c43.653 0 78.99 36.328 78.99 80 0 43.56-35.43 78.99-78.99 79z" fill="#ffb454"/><path d="m271 120c0 8.208-6.704 15-14.99 15-7.816 0-14.31-6.067-14.93-13.52-.815-7.973 4.923-15.518 13.44-16.41 8.589-.873 16.48 5.878 16.48 14.93z" fill="#ffb454"/><path d="m271 120c0 8.208-6.704 15-14.99 15v-30c8.296 0 14.99 6.759 14.99 15z" fill="#ff8659"/><path d="m112 0c-25.92 0-47 21.08-47 47s21.08 47 47 47 47-21.08 47-47-21.08-47-47-47z" fill="#ffe278"/><path d="m159 47c0 25.92-21.08 47-47 47v-94c25.92 0 47 21.08 47 47z" fill="#ffb454"/><path d="m400 0c-25.92 0-47 21.08-47 47s21.08 47 47 47 47-21.08 47-47-21.08-47-47-47z" fill="#ffb454"/><path d="m447 47c0 25.92-21.08 47-47 47v-94c25.92 0 47 21.08 47 47z" fill="#ff8659"/></g></svg>