<svg id="Capa_1" enable-background="new 0 0 512 512" height="512" viewBox="0 0 512 512" width="512" xmlns="http://www.w3.org/2000/svg"><g><path d="m271 15v482c0 8.28-6.72 15-15 15s-15-6.72-15-15v-482c0-8.28 6.72-15 15-15s15 6.72 15 15z" fill="#985e33"/><path d="m271 15v482c0 8.28-6.72 15-15 15v-512c8.28 0 15 6.72 15 15z" fill="#7d4a3b"/><path d="m376.57 509.31c-6.777 4.725-16.15 3.07-20.88-3.74l-99.69-143.3-99.69 143.3c-4.73 6.8-14.08 8.47-20.88 3.74s-8.47-14.08-3.74-20.88l112-161c5.947-8.56 18.664-8.572 24.62 0l112 161c4.73 6.8 3.06 16.15-3.74 20.88z" fill="#c6865c"/><path d="m376.57 509.31c-6.777 4.725-16.15 3.07-20.88-3.74l-99.69-143.3v-41.27c4.91 0 9.51 2.4 12.31 6.43l112 161c4.73 6.8 3.06 16.15-3.74 20.88z" fill="#985e33"/><path d="m511 94v212c0 24.81-20.19 45-45 45h-420c-24.81 0-45-20.19-45-45v-212c0-24.81 20.19-45 45-45h420c24.81 0 45 20.19 45 45z" fill="#f9f9f9"/><path d="m511 94v212c0 24.81-20.19 45-45 45h-210v-302h210c24.81 0 45 20.19 45 45z" fill="#e2dff4"/><circle cx="152" cy="200" fill="#4793ff" r="87"/><path d="m195.82 275.13c-47.255 27.685-108.782 4.976-126.36-47.62l82.54-27.51z" fill="#afea93"/><path d="m152 113v87l-82.54 27.51c-18.809-56.3 23.388-114.51 82.54-114.51z" fill="#ff6378"/><path d="m374.994 260.86v3.14c0 8.28-6.72 15-15 15-8.277 0-15-6.72-15-15v-1.44c-6.92-1.21-13.23-3.8-21.21-9.02-6.93-4.54-8.87-13.83-4.33-20.76 4.54-6.94 13.83-8.88 20.76-4.34 7.715 5.052 10.084 5.08 19.76 5.08 9.59-.1 13.41-7.64 14.16-12.1.68-4.01-.08-9.34-7.51-11.97-11.309-3.979-24.898-9.185-34.28-16.55-20.65-16.19-14.31-53.07 12.65-62.88v-2.17c0-8.277 6.72-15 15-15s15 6.72 15 15v1.23c9.94 2.93 16.89 9.12 16.89 9.12 6.05 5.6 6.45 15.05.87 21.14-5.59 6.1-15.05 6.52-21.16.96-3.974-2.95-9.922-4.075-15.98-2.22-4.02 1.21-5.1 5.35-5.33 6.6-.49 2.58.2 4.32.57 4.62 6.109 4.783 18.455 9.278 25.77 11.87 39.53 13.98 34.71 66.56-1.63 79.69z" fill="#00cb75"/></g></svg>