<svg id="Capa_1" enable-background="new 0 0 512 512" height="512" viewBox="0 0 512 512" width="512" xmlns="http://www.w3.org/2000/svg"><g><path d="m319 372v96c0 8.28-6.72 15-15 15h-96c-8.28 0-15-6.72-15-15v-96c0-8.28 6.72-15 15-15h96c8.28 0 15 6.72 15 15z" fill="#453d81"/><path d="m319 372v96c0 8.28-6.72 15-15 15h-48v-126h48c8.28 0 15 6.72 15 15z" fill="#2e2654"/><path d="m467 29h-422c-24.81 0-45 20.19-45 45v268c0 24.81 20.19 45 45 45h422c24.81 0 45-20.19 45-45v-268c0-24.81-20.19-45-45-45z" fill="#6b66d0"/><path d="m512 74v268c0 24.81-20.19 45-45 45h-211v-358h211c24.81 0 45 20.19 45 45z" fill="#453d81"/><path d="m482 74v268c0 8.27-6.73 15-15 15h-422c-8.27 0-15-6.73-15-15v-268c0-8.27 6.73-15 15-15h422c8.27 0 15 6.73 15 15z" fill="#f9f9f9"/><path d="m482 74v268c0 8.27-6.73 15-15 15h-211v-298h211c8.27 0 15 6.73 15 15z" fill="#e2dff4"/><path d="m431 468c0 8.28-6.72 15-15 15h-320c-8.28 0-15-6.72-15-15s6.72-15 15-15h320c8.28 0 15 6.72 15 15z" fill="#6b66d0"/><path d="m431 468c0 8.28-6.72 15-15 15h-160v-30h160c8.28 0 15 6.72 15 15z" fill="#453d81"/><path d="m368 92h32c8.837 0 16 7.163 16 16v200c0 8.837-7.163 16-16 16h-48v-216c0-8.837 7.163-16 16-16z" fill="#00cb75"/><path d="m303 124h49v200h-64v-185c0-8.284 6.716-15 15-15z" fill="#ffb454"/><path d="m288 156v168h-49c-8.28 0-15-6.72-15-15v-138c0-8.28 6.72-15 15-15z" fill="#ff6378"/><path d="m256 156h32v168h-32z" fill="#ff2929"/><path d="m127.02 305.32v3.14c0 8.28-6.72 15-15 15-8.277 0-15-6.72-15-15v-1.44c-6.92-1.21-13.23-3.8-21.21-9.02-6.93-4.54-8.87-13.83-4.33-20.76 4.54-6.94 13.83-8.88 20.76-4.34 7.715 5.052 10.084 5.08 19.76 5.08 9.59-.1 13.41-7.64 14.16-12.1.68-4.01-.08-9.34-7.51-11.97-11.309-3.979-24.898-9.185-34.28-16.55-20.65-16.19-14.31-53.07 12.65-62.88v-2.17c0-8.277 6.72-15 15-15s15 6.72 15 15v1.23c9.94 2.93 16.89 9.12 16.89 9.12 6.05 5.6 6.45 15.05.87 21.14-5.59 6.1-15.05 6.52-21.16.96-3.974-2.95-9.922-4.075-15.98-2.22-4.02 1.21-5.1 5.35-5.33 6.6-.49 2.58.2 4.32.57 4.62 6.109 4.783 18.455 9.278 25.77 11.87 39.53 13.98 34.71 66.56-1.63 79.69z" fill="#afea93"/></g></svg>