<svg id="Capa_1" enable-background="new 0 0 512 512" height="512" viewBox="0 0 512 512" width="512" xmlns="http://www.w3.org/2000/svg"><g><path d="m400 33h-240c-8.284 0-15 6.716-15 15v88c0 8.284 6.716 15 15 15h240c8.284 0 15-6.716 15-15v-88c0-8.284-6.716-15-15-15z" fill="#525cdd"/><path d="m303 16v104c0 8.28-6.72 15-15 15h-240c-8.28 0-15-6.72-15-15v-104c0-8.28 6.72-15 15-15h240c8.28 0 15 6.72 15 15z" fill="#afea93"/><path d="m303 16v104c0 8.28-6.72 15-15 15h-120v-134h120c8.28 0 15 6.72 15 15z" fill="#00cb75"/><path d="m463 150v316c0 24.81-20.19 45-45 45h-373c-24.81 0-45-20.19-45-45v-316c0-24.81 20.19-45 45-45h373c24.81 0 45 20.19 45 45z" fill="#985e33"/><path d="m463 150v316c0 24.81-20.19 45-45 45h-186.5v-406h186.5c24.81 0 45 20.19 45 45z" fill="#7d4a3b"/><path d="m467 217h-133c-24.813 0-45 20.187-45 45v68c0 24.813 20.187 45 45 45h133c24.813 0 45-20.187 45-45v-68c0-24.813-20.187-45-45-45z" fill="#ffb454"/><path d="m368 311c-8.272 0-15-6.768-15-15 0-8.576 7.342-15.768 16.48-14.93 8.532.894 14.264 8.475 13.45 16.41-.797 7.677-7.24 13.52-14.93 13.52z" fill="#ff8659"/><path d="m463 432v34c0 24.81-20.19 45-45 45h-373c-24.81 0-45-20.19-45-45v-34z" fill="#c6865c"/><path d="m463 432v34c0 24.81-20.19 45-45 45h-186.5v-79z" fill="#985e33"/></g></svg>