<?xml version="1.0" encoding="iso-8859-1"?>
<!-- Generator: Adobe Illustrator 19.0.0, SVG Export Plug-In . SVG Version: 6.00 Build 0)  -->
<svg version="1.1" id="Capa_1" xmlns="http://www.w3.org/2000/svg" xmlns:xlink="http://www.w3.org/1999/xlink" x="0px" y="0px"
	 viewBox="0 0 512 512" style="enable-background:new 0 0 512 512;" xml:space="preserve">
<path style="fill:#D2F0FF;" d="M281.091,408.298h-50.183c-8.49,0-15.374-6.883-15.374-15.374V191.077
	c0-8.49,6.883-15.374,15.374-15.374h50.183c8.49,0,15.374,6.883,15.374,15.374v201.847
	C296.465,401.415,289.582,408.298,281.091,408.298z"/>
<path style="fill:#73C8F0;" d="M281.091,175.704h-25.095v232.594h25.095c8.49,0,15.374-6.883,15.374-15.374V191.077
	C296.465,182.586,289.582,175.704,281.091,175.704z"/>
<path style="fill:#D2F0FF;" d="M152.126,408.298h-50.183c-8.49,0-15.374-6.883-15.374-15.374V191.077
	c0-8.49,6.883-15.374,15.374-15.374h50.183c8.49,0,15.374,6.883,15.374,15.374v201.847
	C167.5,401.415,160.616,408.298,152.126,408.298z"/>
<path style="fill:#73C8F0;" d="M410.056,408.298h-50.183c-8.49,0-15.374-6.883-15.374-15.374V191.077
	c0-8.49,6.883-15.374,15.374-15.374h50.183c8.49,0,15.374,6.883,15.374,15.374v201.847
	C425.43,401.415,418.547,408.298,410.056,408.298z"/>
<g>
	<path style="fill:#41B4E6;" d="M451.376,460.149H60.622c-8.49,0-15.374-6.883-15.374-15.374v-51.851
		c0-8.49,6.883-15.374,15.374-15.374h390.753c8.49,0,15.374,6.883,15.374,15.374v51.851
		C466.75,453.266,459.867,460.149,451.376,460.149z"/>
	<path style="fill:#41B4E6;" d="M451.376,206.451H60.622c-8.49,0-15.374-6.883-15.374-15.374v-51.851
		c0-8.49,6.883-15.374,15.374-15.374h390.753c8.49,0,15.374,6.883,15.374,15.374v51.851
		C466.75,199.568,459.867,206.451,451.376,206.451z"/>
</g>
<g>
	<path style="fill:#D2F0FF;" d="M481.023,512H30.977c-8.49,0-15.374-6.883-15.374-15.374v-51.85c0-8.49,6.883-15.374,15.374-15.374
		h450.046c8.49,0,15.374,6.883,15.374,15.374v51.85C496.396,505.117,489.513,512,481.023,512z"/>
	<path style="fill:#D2F0FF;" d="M481.023,154.601H30.977c-7.017,0-13.143-4.75-14.889-11.547
		c-1.747-6.795,1.329-13.912,7.477-17.295L248.587,1.906c4.614-2.541,10.211-2.541,14.825,0l225.023,123.853
		c6.147,3.383,9.224,10.5,7.477,17.295C494.165,149.85,488.039,154.601,481.023,154.601z"/>
</g>
<g>
	<path style="fill:#0073AA;" d="M451.376,123.853h-195.38v82.598h195.38c8.49,0,15.374-6.883,15.374-15.374v-51.851
		C466.75,130.737,459.867,123.853,451.376,123.853z"/>
	<path style="fill:#0073AA;" d="M451.376,377.551h-195.38v82.598h195.38c8.49,0,15.374-6.883,15.374-15.374v-51.851
		C466.75,384.434,459.867,377.551,451.376,377.551z"/>
</g>
<g>
	<path style="fill:#73C8F0;" d="M481.023,154.601c7.017,0,13.143-4.75,14.889-11.547c1.747-6.795-1.329-13.912-7.477-17.295
		L263.412,1.906C261.105,0.636,258.552,0,255.999,0v154.6H481.023z"/>
	<path style="fill:#73C8F0;" d="M481.023,429.401H255.999v82.598h225.023c8.49,0,15.374-6.883,15.374-15.374v-51.85
		C496.396,436.285,489.513,429.401,481.023,429.401z"/>
</g>
<g>
</g>
<g>
</g>
<g>
</g>
<g>
</g>
<g>
</g>
<g>
</g>
<g>
</g>
<g>
</g>
<g>
</g>
<g>
</g>
<g>
</g>
<g>
</g>
<g>
</g>
<g>
</g>
<g>
</g>
</svg>
